<svg xmlns="http://www.w3.org/2000/svg" viewBox="0 0 1600 900" width="1600" height="900">
<defs><radialGradient id="l"><stop offset="0" stop-color="#ffb08a" stop-opacity="0.6"/><stop offset="1" stop-color="#ffb08a" stop-opacity="0"/></radialGradient><radialGradient id="s"><stop offset="0" stop-color="#c2457a" stop-opacity="0.6"/><stop offset="1" stop-color="#c2457a" stop-opacity="0"/></radialGradient></defs><ellipse cx="1138.6" cy="538.1" rx="469.2" ry="149.2" fill="url(#s)"/><ellipse cx="1138.6" cy="500.8" rx="422.3" ry="119.4" fill="url(#l)"/><ellipse cx="1564.9" cy="650.7" rx="454.6" ry="138.1" fill="url(#s)"/><ellipse cx="1564.9" cy="616.2" rx="409.2" ry="110.5" fill="url(#l)"/><ellipse cx="783.2" cy="267.5" rx="420.6" ry="145.3" fill="url(#s)"/><ellipse cx="783.2" cy="231.2" rx="378.5" ry="116.2" fill="url(#l)"/><ellipse cx="1362.7" cy="722.1" rx="459.5" ry="138.6" fill="url(#s)"/><ellipse cx="1362.7" cy="687.4" rx="413.6" ry="110.9" fill="url(#l)"/><ellipse cx="480" cy="565.6" rx="334" ry="117.4" fill="url(#s)"/><ellipse cx="480" cy="536.3" rx="300.6" ry="94" fill="url(#l)"/><ellipse cx="1101.1" cy="766" rx="397.6" ry="119.1" fill="url(#s)"/><ellipse cx="1101.1" cy="736.2" rx="357.8" ry="95.2" fill="url(#l)"/><ellipse cx="1553.6" cy="686.9" rx="369.1" ry="140" fill="url(#s)"/><ellipse cx="1553.6" cy="651.9" rx="332.2" ry="112" fill="url(#l)"/><ellipse cx="406.7" cy="655.6" rx="370.8" ry="93.5" fill="url(#s)"/><ellipse cx="406.7" cy="632.2" rx="333.7" ry="74.8" fill="url(#l)"/><ellipse cx="783" cy="235.1" rx="519.3" ry="96.8" fill="url(#s)"/><ellipse cx="783" cy="210.9" rx="467.4" ry="77.4" fill="url(#l)"/><ellipse cx="729.1" cy="789" rx="335.1" ry="119.3" fill="url(#s)"/><ellipse cx="729.1" cy="759.1" rx="301.6" ry="95.4" fill="url(#l)"/><ellipse cx="692.4" cy="445.3" rx="326.2" ry="134.1" fill="url(#s)"/><ellipse cx="692.4" cy="411.8" rx="293.6" ry="107.3" fill="url(#l)"/><ellipse cx="704.3" cy="659.2" rx="350.5" ry="104.1" fill="url(#s)"/><ellipse cx="704.3" cy="633.1" rx="315.5" ry="83.3" fill="url(#l)"/>
</svg>
