<svg xmlns="http://www.w3.org/2000/svg" viewBox="0 0 1600 900" width="1600" height="900">
<defs><radialGradient id="l"><stop offset="0" stop-color="#b6f0ff" stop-opacity="0.75"/><stop offset="1" stop-color="#b6f0ff" stop-opacity="0"/></radialGradient><radialGradient id="s"><stop offset="0" stop-color="#3f86d0" stop-opacity="0.75"/><stop offset="1" stop-color="#3f86d0" stop-opacity="0"/></radialGradient></defs><ellipse cx="1477.6" cy="787.7" rx="488.8" ry="156.7" fill="url(#s)"/><ellipse cx="1477.6" cy="748.5" rx="439.9" ry="125.3" fill="url(#l)"/><ellipse cx="634.9" cy="828.7" rx="450.1" ry="180.7" fill="url(#s)"/><ellipse cx="634.9" cy="783.5" rx="405.1" ry="144.6" fill="url(#l)"/><ellipse cx="473.3" cy="750.2" rx="618.9" ry="171.5" fill="url(#s)"/><ellipse cx="473.3" cy="707.3" rx="557" ry="137.2" fill="url(#l)"/><ellipse cx="832.9" cy="893.3" rx="444.9" ry="188.3" fill="url(#s)"/><ellipse cx="832.9" cy="846.3" rx="400.4" ry="150.6" fill="url(#l)"/><ellipse cx="77.5" cy="761.9" rx="637.5" ry="134.1" fill="url(#s)"/><ellipse cx="77.5" cy="728.4" rx="573.8" ry="107.3" fill="url(#l)"/><ellipse cx="177.2" cy="860.3" rx="445.7" ry="144.7" fill="url(#s)"/><ellipse cx="177.2" cy="824.1" rx="401.1" ry="115.8" fill="url(#l)"/><ellipse cx="802.5" cy="654.5" rx="629.1" ry="173.8" fill="url(#s)"/><ellipse cx="802.5" cy="611" rx="566.2" ry="139" fill="url(#l)"/><ellipse cx="-19.1" cy="659.9" rx="393.1" ry="163.5" fill="url(#s)"/><ellipse cx="-19.1" cy="619" rx="353.8" ry="130.8" fill="url(#l)"/><ellipse cx="300.6" cy="602.7" rx="570.2" ry="147.5" fill="url(#s)"/><ellipse cx="300.6" cy="565.8" rx="513.2" ry="118" fill="url(#l)"/>
</svg>
