<svg xmlns="http://www.w3.org/2000/svg" viewBox="0 0 1600 900" width="1600" height="900">
<defs><radialGradient id="l"><stop offset="0" stop-color="#b6f0ff" stop-opacity="0.5"/><stop offset="1" stop-color="#b6f0ff" stop-opacity="0"/></radialGradient><radialGradient id="s"><stop offset="0" stop-color="#3f86d0" stop-opacity="0.5"/><stop offset="1" stop-color="#3f86d0" stop-opacity="0"/></radialGradient></defs><ellipse cx="1323" cy="202.2" rx="298.6" ry="97.4" fill="url(#s)"/><ellipse cx="1323" cy="177.9" rx="268.7" ry="77.9" fill="url(#l)"/><ellipse cx="1354" cy="265.7" rx="340.1" ry="109.4" fill="url(#s)"/><ellipse cx="1354" cy="238.4" rx="306.1" ry="87.5" fill="url(#l)"/><ellipse cx="1147.2" cy="621.5" rx="355.2" ry="78.4" fill="url(#s)"/><ellipse cx="1147.2" cy="601.9" rx="319.7" ry="62.7" fill="url(#l)"/><ellipse cx="473.7" cy="379.3" rx="286.3" ry="84.1" fill="url(#s)"/><ellipse cx="473.7" cy="358.3" rx="257.7" ry="67.3" fill="url(#l)"/><ellipse cx="-71.6" cy="780.2" rx="277.2" ry="88.6" fill="url(#s)"/><ellipse cx="-71.6" cy="758" rx="249.5" ry="70.9" fill="url(#l)"/><ellipse cx="-22.4" cy="108.8" rx="285.7" ry="101.3" fill="url(#s)"/><ellipse cx="-22.4" cy="83.5" rx="257.1" ry="81" fill="url(#l)"/><ellipse cx="826.9" cy="615.7" rx="352" ry="91.3" fill="url(#s)"/><ellipse cx="826.9" cy="592.9" rx="316.8" ry="73.1" fill="url(#l)"/><ellipse cx="1694.8" cy="521.9" rx="334.5" ry="72.7" fill="url(#s)"/><ellipse cx="1694.8" cy="503.7" rx="301" ry="58.1" fill="url(#l)"/><ellipse cx="1630.8" cy="258.1" rx="279.1" ry="88" fill="url(#s)"/><ellipse cx="1630.8" cy="236.1" rx="251.2" ry="70.4" fill="url(#l)"/><ellipse cx="905.4" cy="268.7" rx="372.6" ry="115.4" fill="url(#s)"/><ellipse cx="905.4" cy="239.8" rx="335.4" ry="92.3" fill="url(#l)"/><ellipse cx="684.7" cy="262.6" rx="305" ry="74.8" fill="url(#s)"/><ellipse cx="684.7" cy="243.9" rx="274.5" ry="59.8" fill="url(#l)"/><ellipse cx="26.3" cy="583" rx="393.7" ry="79.6" fill="url(#s)"/><ellipse cx="26.3" cy="563.1" rx="354.3" ry="63.7" fill="url(#l)"/><ellipse cx="1604.7" cy="409.7" rx="331.8" ry="75.8" fill="url(#s)"/><ellipse cx="1604.7" cy="390.7" rx="298.6" ry="60.7" fill="url(#l)"/><ellipse cx="366.8" cy="641.2" rx="292.9" ry="98.7" fill="url(#s)"/><ellipse cx="366.8" cy="616.6" rx="263.6" ry="78.9" fill="url(#l)"/><ellipse cx="668.9" cy="679.1" rx="319.3" ry="89" fill="url(#s)"/><ellipse cx="668.9" cy="656.8" rx="287.3" ry="71.2" fill="url(#l)"/><ellipse cx="-84.6" cy="281.8" rx="280.7" ry="108.4" fill="url(#s)"/><ellipse cx="-84.6" cy="254.7" rx="252.7" ry="86.7" fill="url(#l)"/>
</svg>
