<svg xmlns="http://www.w3.org/2000/svg" viewBox="0 0 600 600" width="600" height="600">
<defs><radialGradient id="a" cx="32%" cy="28%" r="85%"><stop offset="0" stop-color="#ecfbb8"/><stop offset="0.5" stop-color="#7fc07a"/><stop offset="1" stop-color="#18503f"/></radialGradient></defs><polygon points="507,300 436.3,394 378.1,492.9 267,459.8 158.8,451.4 83.4,360.7 114.8,248.6 174.1,166.2 258.6,81.3 360,146.7 459.1,191.4" fill="url(#a)"/><circle cx="310.9" cy="343.5" r="21" fill="#18503f" opacity="0.35"/><circle cx="349.3" cy="239.8" r="25.9" fill="#18503f" opacity="0.35"/><circle cx="240.8" cy="248.4" r="29.4" fill="#18503f" opacity="0.35"/><circle cx="378.3" cy="368.1" r="19.4" fill="#18503f" opacity="0.35"/><polygon points="576.6,170 548.9,214.3 519.1,255.6 467.2,258.7 422.2,236.8 391.3,196 404.4,147.8 426,107.7 465.7,70.2 519.1,84.4 555.2,121.7" fill="url(#a)"/><circle cx="467.5" cy="200.8" r="13.5" fill="#18503f" opacity="0.35"/><circle cx="463.5" cy="205" r="8.1" fill="#18503f" opacity="0.35"/><circle cx="475.3" cy="138.3" r="7.3" fill="#18503f" opacity="0.35"/><circle cx="507.2" cy="134.1" r="7.1" fill="#18503f" opacity="0.35"/><polygon points="200.3,470 188.5,504.4 167.8,541.7 126.4,529.8 84,528.9 70.3,489 67.4,450.2 91,419.2 124.3,395.4 157.7,420.2 195.5,431.1" fill="url(#a)"/><circle cx="138.6" cy="482.3" r="8.9" fill="#18503f" opacity="0.35"/><circle cx="102" cy="461.3" r="6.3" fill="#18503f" opacity="0.35"/><circle cx="133.3" cy="457.1" r="6" fill="#18503f" opacity="0.35"/><circle cx="124.9" cy="461.9" r="8" fill="#18503f" opacity="0.35"/>
</svg>
