<svg xmlns="http://www.w3.org/2000/svg" viewBox="0 0 2000 800" width="2000" height="800">
<defs><linearGradient id="g" x1="0" y1="0" x2="0" y2="1"><stop offset="0" stop-color="#ecfbb8"/><stop offset="0.12" stop-color="#7fc07a"/><stop offset="1" stop-color="#18503f"/></linearGradient><radialGradient id="a" cx="50%" cy="0%" r="60%"><stop offset="0" stop-color="#a7db8d" stop-opacity="0.45"/><stop offset="1" stop-color="#a7db8d" stop-opacity="0"/></radialGradient></defs><ellipse cx="1000" cy="1240" rx="1790" ry="1000" fill="url(#a)"/><ellipse cx="1000" cy="1260" rx="1700" ry="980" fill="url(#g)"/><ellipse cx="1193.3" cy="525.1" rx="134" ry="34.8" fill="#18503f" opacity="0.3"/><ellipse cx="1193.3" cy="521.1" rx="134" ry="34.8" fill="none" stroke="#ecfbb8" stroke-width="3" opacity="0.22"/><ellipse cx="286.4" cy="534.8" rx="138.4" ry="36" fill="#18503f" opacity="0.3"/><ellipse cx="286.4" cy="530.7" rx="138.4" ry="36" fill="none" stroke="#ecfbb8" stroke-width="3" opacity="0.22"/><ellipse cx="1215.4" cy="375.7" rx="99.3" ry="25.8" fill="#18503f" opacity="0.3"/><ellipse cx="1215.4" cy="372.8" rx="99.3" ry="25.8" fill="none" stroke="#ecfbb8" stroke-width="3" opacity="0.22"/><ellipse cx="852.7" cy="756.1" rx="74.6" ry="19.4" fill="#18503f" opacity="0.3"/><ellipse cx="852.7" cy="753.9" rx="74.6" ry="19.4" fill="none" stroke="#ecfbb8" stroke-width="3" opacity="0.22"/><ellipse cx="1128" cy="677.6" rx="144.4" ry="37.5" fill="#18503f" opacity="0.3"/><ellipse cx="1128" cy="673.2" rx="144.4" ry="37.5" fill="none" stroke="#ecfbb8" stroke-width="3" opacity="0.22"/><ellipse cx="1742.9" cy="359.9" rx="33.7" ry="8.8" fill="#18503f" opacity="0.3"/><ellipse cx="1742.9" cy="358.9" rx="33.7" ry="8.8" fill="none" stroke="#ecfbb8" stroke-width="3" opacity="0.22"/><ellipse cx="961.7" cy="619.6" rx="30.7" ry="8" fill="#18503f" opacity="0.3"/><ellipse cx="961.7" cy="618.7" rx="30.7" ry="8" fill="none" stroke="#ecfbb8" stroke-width="3" opacity="0.22"/><ellipse cx="1766.2" cy="487.9" rx="127.1" ry="33.1" fill="#18503f" opacity="0.3"/><ellipse cx="1766.2" cy="484.1" rx="127.1" ry="33.1" fill="none" stroke="#ecfbb8" stroke-width="3" opacity="0.22"/><ellipse cx="1452.6" cy="735" rx="122.2" ry="31.8" fill="#18503f" opacity="0.3"/><ellipse cx="1452.6" cy="731.3" rx="122.2" ry="31.8" fill="none" stroke="#ecfbb8" stroke-width="3" opacity="0.22"/><ellipse cx="770.5" cy="455.5" rx="125.6" ry="32.7" fill="#18503f" opacity="0.3"/><ellipse cx="770.5" cy="451.8" rx="125.6" ry="32.7" fill="none" stroke="#ecfbb8" stroke-width="3" opacity="0.22"/><ellipse cx="494.1" cy="579.3" rx="76.1" ry="19.8" fill="#18503f" opacity="0.3"/><ellipse cx="494.1" cy="577" rx="76.1" ry="19.8" fill="none" stroke="#ecfbb8" stroke-width="3" opacity="0.22"/><ellipse cx="1261.1" cy="559.7" rx="68.2" ry="17.7" fill="#18503f" opacity="0.3"/><ellipse cx="1261.1" cy="557.7" rx="68.2" ry="17.7" fill="none" stroke="#ecfbb8" stroke-width="3" opacity="0.22"/><ellipse cx="577.7" cy="604.9" rx="102" ry="26.5" fill="#18503f" opacity="0.3"/><ellipse cx="577.7" cy="601.8" rx="102" ry="26.5" fill="none" stroke="#ecfbb8" stroke-width="3" opacity="0.22"/><ellipse cx="1299.1" cy="402.9" rx="30.3" ry="7.9" fill="#18503f" opacity="0.3"/><ellipse cx="1299.1" cy="401.9" rx="30.3" ry="7.9" fill="none" stroke="#ecfbb8" stroke-width="3" opacity="0.22"/><ellipse cx="1564.8" cy="650.1" rx="48" ry="12.5" fill="#18503f" opacity="0.3"/><ellipse cx="1564.8" cy="648.7" rx="48" ry="12.5" fill="none" stroke="#ecfbb8" stroke-width="3" opacity="0.22"/><ellipse cx="318" cy="731.5" rx="148.4" ry="38.6" fill="#18503f" opacity="0.3"/><ellipse cx="318" cy="727.1" rx="148.4" ry="38.6" fill="none" stroke="#ecfbb8" stroke-width="3" opacity="0.22"/><ellipse cx="760.7" cy="745" rx="145.4" ry="37.8" fill="#18503f" opacity="0.3"/><ellipse cx="760.7" cy="740.6" rx="145.4" ry="37.8" fill="none" stroke="#ecfbb8" stroke-width="3" opacity="0.22"/><ellipse cx="1558" cy="757.2" rx="88.7" ry="23.1" fill="#18503f" opacity="0.3"/><ellipse cx="1558" cy="754.5" rx="88.7" ry="23.1" fill="none" stroke="#ecfbb8" stroke-width="3" opacity="0.22"/><ellipse cx="183.2" cy="677.6" rx="49.8" ry="13" fill="#18503f" opacity="0.3"/><ellipse cx="183.2" cy="676.1" rx="49.8" ry="13" fill="none" stroke="#ecfbb8" stroke-width="3" opacity="0.22"/><ellipse cx="699.1" cy="407.5" rx="34" ry="8.8" fill="#18503f" opacity="0.3"/><ellipse cx="699.1" cy="406.5" rx="34" ry="8.8" fill="none" stroke="#ecfbb8" stroke-width="3" opacity="0.22"/><ellipse cx="1207.1" cy="575.2" rx="116.1" ry="30.2" fill="#18503f" opacity="0.3"/><ellipse cx="1207.1" cy="571.7" rx="116.1" ry="30.2" fill="none" stroke="#ecfbb8" stroke-width="3" opacity="0.22"/><ellipse cx="749.4" cy="624.1" rx="107.2" ry="27.9" fill="#18503f" opacity="0.3"/><ellipse cx="749.4" cy="620.9" rx="107.2" ry="27.9" fill="none" stroke="#ecfbb8" stroke-width="3" opacity="0.22"/>
</svg>
